# xmcd CD database file
#
# Track frame offsets:
#	150
#	20793
#	43348
#	64477
#	85968
#	106952
#	127997
#	151832
#	167856
#	185564
#	207077
#	226476
#
# Disc length: 3317 seconds
#
# Revision: 0
# Processed by: cddbd v1.5.1PL0 Copyright (c) Steve Scherf et al.
# Submitted via: CDex 1.51
#
DISCID=a70cf30c
DTITLE=Yumuri y sus hermanos - Salsa y candela
DYEAR=2004
DGENRE=Salsa
TTITLE0=Bailen otra vez
TTITLE1=Mi salsa tiene candela
TTITLE2=Tremendo personaje
TTITLE3=Coge la botella
TTITLE4=Latidos
TTITLE5=Increíblemente
TTITLE6=Atrevida
TTITLE7=Arrepentido
TTITLE8=El gato no coge al ratón corriendo
TTITLE9=Coge la botella (REMIX)
TTITLE10=Acaramelao
TTITLE11=Anoche lloré
EXTD=YEAR: 2004
EXTT0=
EXTT1=
EXTT2=
EXTT3=
EXTT4=
EXTT5=
EXTT6=
EXTT7=
EXTT8=
EXTT9=
EXTT10=
EXTT11=
PLAYORDER=
